# xmcd
#
# Track frame offsets: 
#        150
#        79453
#        131021
#        223272
#
# Disc length: 4471 seconds
#
# Revision: 0
# Processed by: cddbd v1.5.2PL0 Copyright (c) Steve Scherf et al.
# Submitted via: ExactAudioCopy v1.0b1
#
DISCID=3b117504
DTITLE=Furtwangler - Beethoven Symphonie Nr.9 d-moll op.125
DYEAR=2012
DGENRE=Classical
TTITLE0=Alllegro ma non troppo - un poco maestoso
TTITLE1=Molto vivace
TTITLE2=Adiogo molto e cantabile
TTITLE3=Finale - Presto - allegro assai
EXTD=
EXTT0=
EXTT1=
EXTT2=
EXTT3=
PLAYORDER=
